<svg width="392" height="86" viewBox="0 0 392 86" fill="none" xmlns="http://www.w3.org/2000/svg">
<g filter="url(#filter0_dn_2_13)">
<mask id="path-1-inside-1_2_13" fill="white">
<path d="M73.778 70.4307C79.4527 64.7006 83.2447 57.3467 84.6397 49.3664C86.0348 41.3862 84.9654 33.1657 81.5765 25.8201C78.1876 18.4744 72.6434 12.3589 65.6956 8.30316C58.7479 4.24738 50.7329 2.44753 42.7377 3.14773C34.7425 3.84792 27.154 7.01428 21.0015 12.2173C14.849 17.4204 10.4302 24.4084 8.34437 32.2335C6.25853 40.0587 6.60664 48.3423 9.34148 55.9608C12.0763 63.5794 17.0655 70.1643 23.6324 74.8223L34.5745 59.0931C31.2033 56.7018 28.642 53.3214 27.2381 49.4103C25.8341 45.4992 25.6554 41.2467 26.7262 37.2296C27.797 33.2124 30.0655 29.625 33.2239 26.954C36.3824 24.2829 40.2781 22.6574 44.3825 22.298C48.4869 21.9385 52.6015 22.8625 56.1683 24.9446C59.735 27.0267 62.5812 30.1661 64.3209 33.9371C66.0607 37.7081 66.6097 41.9282 65.8935 46.025C65.1773 50.1218 63.2306 53.897 60.3175 56.8386L73.778 70.4307Z"/>
</mask>
<path d="M73.778 70.4307C79.4527 64.7006 83.2447 57.3467 84.6397 49.3664C86.0348 41.3862 84.9654 33.1657 81.5765 25.8201C78.1876 18.4744 72.6434 12.3589 65.6956 8.30316C58.7479 4.24738 50.7329 2.44753 42.7377 3.14773C34.7425 3.84792 27.154 7.01428 21.0015 12.2173C14.849 17.4204 10.4302 24.4084 8.34437 32.2335C6.25853 40.0587 6.60664 48.3423 9.34148 55.9608C12.0763 63.5794 17.0655 70.1643 23.6324 74.8223L34.5745 59.0931C31.2033 56.7018 28.642 53.3214 27.2381 49.4103C25.8341 45.4992 25.6554 41.2467 26.7262 37.2296C27.797 33.2124 30.0655 29.625 33.2239 26.954C36.3824 24.2829 40.2781 22.6574 44.3825 22.298C48.4869 21.9385 52.6015 22.8625 56.1683 24.9446C59.735 27.0267 62.5812 30.1661 64.3209 33.9371C66.0607 37.7081 66.6097 41.9282 65.8935 46.025C65.1773 50.1218 63.2306 53.897 60.3175 56.8386L73.778 70.4307Z" fill="url(#paint0_linear_2_13)"/>
<path d="M73.778 70.4307C79.4527 64.7006 83.2447 57.3467 84.6397 49.3664C86.0348 41.3862 84.9654 33.1657 81.5765 25.8201C78.1876 18.4744 72.6434 12.3589 65.6956 8.30316C58.7479 4.24738 50.7329 2.44753 42.7377 3.14773C34.7425 3.84792 27.154 7.01428 21.0015 12.2173C14.849 17.4204 10.4302 24.4084 8.34437 32.2335C6.25853 40.0587 6.60664 48.3423 9.34148 55.9608C12.0763 63.5794 17.0655 70.1643 23.6324 74.8223L34.5745 59.0931C31.2033 56.7018 28.642 53.3214 27.2381 49.4103C25.8341 45.4992 25.6554 41.2467 26.7262 37.2296C27.797 33.2124 30.0655 29.625 33.2239 26.954C36.3824 24.2829 40.2781 22.6574 44.3825 22.298C48.4869 21.9385 52.6015 22.8625 56.1683 24.9446C59.735 27.0267 62.5812 30.1661 64.3209 33.9371C66.0607 37.7081 66.6097 41.9282 65.8935 46.025C65.1773 50.1218 63.2306 53.897 60.3175 56.8386L73.778 70.4307Z" stroke="#1330E8" stroke-opacity="0.55" stroke-width="2" mask="url(#path-1-inside-1_2_13)"/>
</g>
<g filter="url(#filter1_dn_2_13)">
<path d="M24.4716 56.9139C28.3811 62.643 42.6637 71.1595 68.5185 59.393L48.026 22.8862L24.4716 56.9139Z" stroke="url(#paint1_linear_2_13)" stroke-width="2" shape-rendering="crispEdges"/>
</g>
<path d="M119.117 29.1142V58.2051H115.083L100.296 36.8699H100.026V58.2051H95.6372V29.1142H99.6997L114.501 50.4779H114.771V29.1142H119.117ZM134.583 58.6455C132.433 58.6455 130.582 58.1862 129.029 57.2676C127.485 56.3396 126.292 55.0375 125.449 53.3614C124.616 51.6758 124.199 49.7013 124.199 47.4381C124.199 45.2032 124.616 43.2335 125.449 41.529C126.292 39.8244 127.466 38.494 128.972 37.5375C130.487 36.5811 132.258 36.1029 134.284 36.1029C135.515 36.1029 136.708 36.3065 137.864 36.7137C139.019 37.1208 140.056 37.7601 140.975 38.6313C141.893 39.5025 142.618 40.6341 143.148 42.0262C143.678 43.4087 143.943 45.0896 143.943 47.0688V48.5744H126.6V45.3926H139.781C139.781 44.2752 139.554 43.2856 139.1 42.4239C138.645 41.5527 138.006 40.8661 137.182 40.3642C136.368 39.8623 135.411 39.6114 134.313 39.6114C133.119 39.6114 132.078 39.9049 131.188 40.4921C130.307 41.0697 129.625 41.8273 129.142 42.7648C128.669 43.6928 128.432 44.7013 128.432 45.7904V48.2762C128.432 49.7345 128.688 50.975 129.199 51.9977C129.72 53.0205 130.444 53.8017 131.372 54.3415C132.3 54.8718 133.385 55.1369 134.625 55.1369C135.43 55.1369 136.164 55.0233 136.827 54.796C137.49 54.5593 138.063 54.2089 138.546 53.7449C139.029 53.2809 139.398 52.708 139.654 52.0262L143.673 52.7506C143.351 53.9343 142.774 54.9712 141.94 55.8614C141.117 56.7421 140.08 57.4286 138.83 57.921C137.589 58.404 136.173 58.6455 134.583 58.6455ZM151.5 36.3869L156.315 44.8813L161.173 36.3869H165.818L159.014 47.296L165.875 58.2051H161.23L156.315 50.0517L151.415 58.2051H146.756L153.546 47.296L146.841 36.3869H151.5ZM180.364 36.3869V39.796H168.446V36.3869H180.364ZM171.642 31.1597H175.889V51.7989C175.889 52.6227 176.012 53.243 176.259 53.6597C176.505 54.0669 176.822 54.3462 177.21 54.4977C177.608 54.6398 178.039 54.7108 178.503 54.7108C178.844 54.7108 179.142 54.6871 179.398 54.6398C179.654 54.5924 179.852 54.5546 179.994 54.5262L180.761 58.0347C180.515 58.1294 180.165 58.2241 179.71 58.3188C179.256 58.4229 178.688 58.4797 178.006 58.4892C176.888 58.5082 175.847 58.3093 174.881 57.8926C173.915 57.476 173.134 56.832 172.537 55.9608C171.94 55.0896 171.642 53.9958 171.642 52.6796V31.1597ZM205.09 38.3046C204.816 37.4428 204.446 36.671 203.982 35.9892C203.528 35.2979 202.983 34.7108 202.349 34.2279C201.714 33.7354 200.99 33.3614 200.176 33.1057C199.371 32.85 198.485 32.7222 197.519 32.7222C195.881 32.7222 194.404 33.1436 193.087 33.9864C191.771 34.8292 190.73 36.065 189.962 37.6938C189.205 39.3131 188.826 41.297 188.826 43.6455C188.826 46.0034 189.21 47.9968 189.977 49.6256C190.744 51.2544 191.795 52.4902 193.13 53.333C194.465 54.1758 195.985 54.5972 197.69 54.5972C199.271 54.5972 200.649 54.2752 201.823 53.6313C203.007 52.9873 203.921 52.0782 204.565 50.904C205.218 49.7203 205.545 48.3282 205.545 46.7279L206.681 46.9409H198.357V43.3188H209.792V46.6284C209.792 49.0716 209.271 51.1928 208.23 52.9921C207.197 54.7818 205.767 56.1644 203.94 57.1398C202.122 58.1152 200.038 58.6029 197.69 58.6029C195.057 58.6029 192.747 57.9968 190.758 56.7847C188.779 55.5726 187.235 53.8538 186.127 51.6284C185.019 49.3936 184.465 46.7421 184.465 43.6739C184.465 41.3538 184.787 39.2705 185.431 37.4239C186.075 35.5773 186.98 34.0101 188.144 32.7222C189.319 31.4248 190.696 30.4352 192.278 29.7534C193.869 29.0621 195.606 28.7165 197.491 28.7165C199.063 28.7165 200.526 28.9485 201.88 29.4125C203.244 29.8765 204.456 30.5347 205.516 31.3869C206.587 32.2392 207.472 33.2525 208.173 34.4267C208.873 35.5915 209.347 36.8841 209.593 38.3046H205.09ZM224.426 58.6455C222.277 58.6455 220.425 58.1862 218.872 57.2676C217.329 56.3396 216.136 55.0375 215.293 53.3614C214.459 51.6758 214.043 49.7013 214.043 47.4381C214.043 45.2032 214.459 43.2335 215.293 41.529C216.136 39.8244 217.31 38.494 218.815 37.5375C220.331 36.5811 222.101 36.1029 224.128 36.1029C225.359 36.1029 226.552 36.3065 227.708 36.7137C228.863 37.1208 229.9 37.7601 230.818 38.6313C231.737 39.5025 232.461 40.6341 232.992 42.0262C233.522 43.4087 233.787 45.0896 233.787 47.0688V48.5744H216.443V45.3926H229.625C229.625 44.2752 229.398 43.2856 228.943 42.4239C228.489 41.5527 227.85 40.8661 227.026 40.3642C226.211 39.8623 225.255 39.6114 224.156 39.6114C222.963 39.6114 221.922 39.9049 221.031 40.4921C220.151 41.0697 219.469 41.8273 218.986 42.7648C218.512 43.6928 218.276 44.7013 218.276 45.7904V48.2762C218.276 49.7345 218.531 50.975 219.043 51.9977C219.564 53.0205 220.288 53.8017 221.216 54.3415C222.144 54.8718 223.228 55.1369 224.469 55.1369C225.274 55.1369 226.008 55.0233 226.671 54.796C227.333 54.5593 227.906 54.2089 228.389 53.7449C228.872 53.2809 229.242 52.708 229.497 52.0262L233.517 52.7506C233.195 53.9343 232.618 54.9712 231.784 55.8614C230.96 56.7421 229.923 57.4286 228.673 57.921C227.433 58.404 226.017 58.6455 224.426 58.6455ZM242.747 45.2506V58.2051H238.499V36.3869H242.576V39.9381H242.846C243.348 38.7828 244.134 37.8547 245.204 37.154C246.284 36.4532 247.642 36.1029 249.281 36.1029C250.767 36.1029 252.069 36.4154 253.187 37.0404C254.304 37.6559 255.171 38.5744 255.786 39.796C256.402 41.0176 256.71 42.528 256.71 44.3273V58.2051H252.462V44.8387C252.462 43.2572 252.051 42.0214 251.227 41.1313C250.403 40.2316 249.271 39.7818 247.832 39.7818C246.847 39.7818 245.971 39.9949 245.204 40.421C244.446 40.8472 243.845 41.4722 243.4 42.296C242.964 43.1104 242.747 44.0953 242.747 45.2506ZM275.261 44.0716V47.7506H262.363V44.0716H275.261ZM277.445 32.8926V29.1142H299.959V32.8926H290.882V58.2051H286.507V32.8926H277.445ZM315.445 49.1568V36.3869H319.707V58.2051H315.531V54.4267H315.303C314.801 55.5915 313.997 56.5621 312.889 57.3387C311.79 58.1057 310.422 58.4892 308.784 58.4892C307.382 58.4892 306.141 58.1815 305.062 57.5659C303.992 56.9409 303.149 56.0176 302.534 54.796C301.927 53.5744 301.624 52.064 301.624 50.2648V36.3869H305.872V49.7534C305.872 51.2402 306.284 52.4239 307.107 53.3046C307.931 54.1852 309.001 54.6256 310.318 54.6256C311.113 54.6256 311.904 54.4267 312.69 54.029C313.485 53.6313 314.143 53.0299 314.664 52.225C315.194 51.4201 315.455 50.3974 315.445 49.1568ZM322.288 32.8926V29.1142H344.803V32.8926H335.726V58.2051H331.351V32.8926H322.288ZM355.463 58.6455C353.418 58.6455 351.633 58.1767 350.108 57.2392C348.583 56.3017 347.4 54.9902 346.557 53.3046C345.714 51.619 345.293 49.6493 345.293 47.3955C345.293 45.1322 345.714 43.153 346.557 41.458C347.4 39.7629 348.583 38.4466 350.108 37.5091C351.633 36.5716 353.418 36.1029 355.463 36.1029C357.509 36.1029 359.294 36.5716 360.818 37.5091C362.343 38.4466 363.527 39.7629 364.369 41.458C365.212 43.153 365.634 45.1322 365.634 47.3955C365.634 49.6493 365.212 51.619 364.369 53.3046C363.527 54.9902 362.343 56.3017 360.818 57.2392C359.294 58.1767 357.509 58.6455 355.463 58.6455ZM355.477 55.0801C356.803 55.0801 357.902 54.7297 358.773 54.029C359.644 53.3282 360.288 52.3955 360.705 51.2307C361.131 50.0659 361.344 48.7828 361.344 47.3813C361.344 45.9892 361.131 44.7108 360.705 43.546C360.288 42.3718 359.644 41.4296 358.773 40.7193C357.902 40.0091 356.803 39.654 355.477 39.654C354.142 39.654 353.034 40.0091 352.154 40.7193C351.282 41.4296 350.634 42.3718 350.208 43.546C349.791 44.7108 349.583 45.9892 349.583 47.3813C349.583 48.7828 349.791 50.0659 350.208 51.2307C350.634 52.3955 351.282 53.3282 352.154 54.029C353.034 54.7297 354.142 55.0801 355.477 55.0801ZM370.374 58.2051V36.3869H374.48V39.8529H374.707C375.105 38.6786 375.805 37.7553 376.809 37.083C377.822 36.4011 378.968 36.0602 380.247 36.0602C380.512 36.0602 380.824 36.0697 381.184 36.0887C381.553 36.1076 381.842 36.1313 382.051 36.1597V40.2222C381.88 40.1748 381.577 40.1227 381.141 40.0659C380.706 39.9996 380.27 39.9665 379.835 39.9665C378.831 39.9665 377.936 40.1796 377.15 40.6057C376.373 41.0224 375.758 41.6047 375.303 42.3529C374.849 43.0915 374.622 43.9343 374.622 44.8813V58.2051H370.374Z" fill="url(#paint2_radial_2_13)"/>
<defs>
<filter id="filter0_dn_2_13" x="-3.8147e-06" y="-3.05176e-05" width="92.2353" height="85.8224" filterUnits="userSpaceOnUse" color-interpolation-filters="sRGB">
<feFlood flood-opacity="0" result="BackgroundImageFix"/>
<feColorMatrix in="SourceAlpha" type="matrix" values="0 0 0 0 0 0 0 0 0 0 0 0 0 0 0 0 0 0 127 0" result="hardAlpha"/>
<feMorphology radius="3" operator="dilate" in="SourceAlpha" result="effect1_dropShadow_2_13"/>
<feOffset dy="4"/>
<feGaussianBlur stdDeviation="2"/>
<feComposite in2="hardAlpha" operator="out"/>
<feColorMatrix type="matrix" values="0 0 0 0 0.934615 0 0 0 0 0.753758 0 0 0 0 0.211187 0 0 0 1 0"/>
<feBlend mode="normal" in2="BackgroundImageFix" result="effect1_dropShadow_2_13"/>
<feBlend mode="normal" in="SourceGraphic" in2="BackgroundImageFix" result="shape"/>
<feTurbulence type="fractalNoise" baseFrequency="2 2" stitchTiles="stitch" numOctaves="3" result="noise" seed="7712" />
<feColorMatrix in="noise" type="luminanceToAlpha" result="alphaNoise" />
<feComponentTransfer in="alphaNoise" result="coloredNoise1">
<feFuncA type="discrete" tableValues="1 1 1 1 1 1 1 1 1 1 1 1 1 1 1 1 1 1 1 1 1 1 1 1 1 1 1 1 1 1 1 1 1 1 1 1 1 1 1 1 1 1 1 1 1 1 1 1 1 1 1 0 0 0 0 0 0 0 0 0 0 0 0 0 0 0 0 0 0 0 0 0 0 0 0 0 0 0 0 0 0 0 0 0 0 0 0 0 0 0 0 0 0 0 0 0 0 0 0 0 "/>
</feComponentTransfer>
<feComposite operator="in" in2="shape" in="coloredNoise1" result="noise1Clipped" />
<feFlood flood-color="rgba(0, 0, 0, 0.25)" result="color1Flood" />
<feComposite operator="in" in2="noise1Clipped" in="color1Flood" result="color1" />
<feMerge result="effect2_noise_2_13">
<feMergeNode in="shape" />
<feMergeNode in="color1" />
</feMerge>
<feBlend mode="normal" in="effect2_noise_2_13" in2="effect1_dropShadow_2_13" result="effect2_noise_2_13"/>
</filter>
<filter id="filter1_dn_2_13" x="19.258" y="21.0007" width="54.6645" height="53.2889" filterUnits="userSpaceOnUse" color-interpolation-filters="sRGB">
<feFlood flood-opacity="0" result="BackgroundImageFix"/>
<feColorMatrix in="SourceAlpha" type="matrix" values="0 0 0 0 0 0 0 0 0 0 0 0 0 0 0 0 0 0 127 0" result="hardAlpha"/>
<feOffset dy="4"/>
<feGaussianBlur stdDeviation="2"/>
<feComposite in2="hardAlpha" operator="out"/>
<feColorMatrix type="matrix" values="0 0 0 0 0 0 0 0 0 0 0 0 0 0 0 0 0 0 0.25 0"/>
<feBlend mode="normal" in2="BackgroundImageFix" result="effect1_dropShadow_2_13"/>
<feBlend mode="normal" in="SourceGraphic" in2="BackgroundImageFix" result="shape"/>
<feTurbulence type="fractalNoise" baseFrequency="2 2" stitchTiles="stitch" numOctaves="3" result="noise" seed="2287" />
<feColorMatrix in="noise" type="luminanceToAlpha" result="alphaNoise" />
<feComponentTransfer in="alphaNoise" result="coloredNoise1">
<feFuncA type="discrete" tableValues="1 1 1 1 1 1 1 1 1 1 1 1 1 1 1 1 1 1 1 1 1 1 1 1 1 1 1 1 1 1 1 1 1 1 1 1 1 1 1 1 1 1 1 1 1 1 1 1 1 1 1 0 0 0 0 0 0 0 0 0 0 0 0 0 0 0 0 0 0 0 0 0 0 0 0 0 0 0 0 0 0 0 0 0 0 0 0 0 0 0 0 0 0 0 0 0 0 0 0 0 "/>
</feComponentTransfer>
<feComposite operator="in" in2="shape" in="coloredNoise1" result="noise1Clipped" />
<feFlood flood-color="#C22A2A" result="color1Flood" />
<feComposite operator="in" in2="noise1Clipped" in="color1Flood" result="color1" />
<feMerge result="effect2_noise_2_13">
<feMergeNode in="shape" />
<feMergeNode in="color1" />
</feMerge>
<feBlend mode="normal" in="effect2_noise_2_13" in2="effect1_dropShadow_2_13" result="effect2_noise_2_13"/>
</filter>
<linearGradient id="paint0_linear_2_13" x1="46.1176" y1="3" x2="46.1176" y2="82" gradientUnits="userSpaceOnUse">
<stop stop-color="#D3EE36"/>
<stop offset="1" stop-color="#973535"/>
</linearGradient>
<linearGradient id="paint1_linear_2_13" x1="42.9036" y1="23.3986" x2="47.0908" y2="65.2576" gradientUnits="userSpaceOnUse">
<stop stop-color="#E5E054"/>
<stop offset="1" stop-color="#B4B272"/>
</linearGradient>
<radialGradient id="paint2_radial_2_13" cx="0" cy="0" r="1" gradientUnits="userSpaceOnUse" gradientTransform="translate(237.941 43.2051) scale(145.5 24)">
<stop stop-color="#EEC036"/>
<stop offset="0.697115" stop-color="#EF1B1B"/>
<stop offset="1" stop-color="#886E1F"/>
</radialGradient>
</defs>
</svg>
